<svg xmlns="http://www.w3.org/2000/svg" viewBox="0 0 600 600" role="img" aria-label="Atlas">
  <rect width="600" height="600" fill="#000000"/>
  <g>
    <circle cx="389.6" cy="378.0" r="4.7" fill="#aa00ff"/>
    <circle cx="407.8" cy="353.3" r="5.3" fill="#9f11ff"/>
    <circle cx="419.4" cy="329.1" r="3.9" fill="#9522ff"/>
    <circle cx="434.4" cy="305.3" r="3.6" fill="#8b33ff"/>
    <circle cx="451.0" cy="271.8" r="2.3" fill="#8144ff"/>
    <circle cx="450.8" cy="243.7" r="5.8" fill="#7351ff"/>
    <circle cx="442.0" cy="215.0" r="3.5" fill="#635aff"/>
    <circle cx="428.1" cy="184.3" r="2.8" fill="#5263ff"/>
    <circle cx="420.0" cy="158.9" r="5.3" fill="#416bff"/>
    <circle cx="399.3" cy="141.9" r="4.4" fill="#3174ff"/>
    <circle cx="369.8" cy="124.2" r="6.3" fill="#2885f8"/>
    <circle cx="343.0" cy="105.0" r="2.8" fill="#279fec"/>
    <circle cx="319.8" cy="104.2" r="5.2" fill="#26b9e0"/>
    <circle cx="285.5" cy="96.1" r="4.7" fill="#26b9e0"/>
    <circle cx="248.2" cy="104.9" r="6.4" fill="#279fec"/>
    <circle cx="227.3" cy="114.7" r="4.0" fill="#2885f8"/>
    <circle cx="201.3" cy="144.4" r="5.4" fill="#3174ff"/>
    <circle cx="188.1" cy="155.8" r="5.1" fill="#416bff"/>
    <circle cx="172.1" cy="183.0" r="5.4" fill="#5263ff"/>
    <circle cx="159.4" cy="218.8" r="4.2" fill="#635aff"/>
    <circle cx="151.3" cy="247.4" r="5.7" fill="#7351ff"/>
    <circle cx="158.2" cy="277.4" r="4.8" fill="#8144ff"/>
    <circle cx="156.3" cy="301.4" r="5.2" fill="#8b33ff"/>
    <circle cx="172.7" cy="336.7" r="3.4" fill="#9522ff"/>
    <circle cx="197.4" cy="353.1" r="5.9" fill="#9f11ff"/>
    <circle cx="213.7" cy="367.7" r="3.0" fill="#aa00ff"/>
    <circle cx="365.6" cy="347.9" r="6.3" fill="#aa00ff"/>
    <circle cx="390.4" cy="327.3" r="5.5" fill="#9d14ff"/>
    <circle cx="410.0" cy="304.9" r="7.0" fill="#9128ff"/>
    <circle cx="427.1" cy="279.4" r="5.2" fill="#853dff"/>
    <circle cx="429.4" cy="247.5" r="4.9" fill="#774fff"/>
    <circle cx="419.0" cy="216.3" r="5.0" fill="#6359ff"/>
    <circle cx="406.2" cy="196.3" r="6.8" fill="#5064ff"/>
    <circle cx="395.5" cy="163.5" r="5.0" fill="#3c6eff"/>
    <circle cx="363.0" cy="149.6" r="5.5" fill="#2879fe"/>
    <circle cx="345.7" cy="139.5" r="4.6" fill="#2798f0"/>
    <circle cx="320.3" cy="127.3" r="4.5" fill="#26b6e1"/>
    <circle cx="284.1" cy="132.3" r="6.1" fill="#26b6e1"/>
    <circle cx="261.0" cy="136.6" r="4.2" fill="#2798f0"/>
    <circle cx="234.7" cy="147.6" r="6.2" fill="#2879fe"/>
    <circle cx="207.5" cy="163.5" r="2.9" fill="#3c6eff"/>
    <circle cx="185.4" cy="192.5" r="4.3" fill="#5064ff"/>
    <circle cx="177.7" cy="214.6" r="2.7" fill="#6359ff"/>
    <circle cx="171.7" cy="249.4" r="4.1" fill="#774fff"/>
    <circle cx="177.1" cy="284.8" r="6.8" fill="#853dff"/>
    <circle cx="196.1" cy="308.3" r="3.8" fill="#9128ff"/>
    <circle cx="202.1" cy="329.1" r="6.0" fill="#9d14ff"/>
    <circle cx="228.1" cy="346.8" r="6.4" fill="#aa00ff"/>
    <circle cx="357.6" cy="330.0" r="6.0" fill="#aa00ff"/>
    <circle cx="381.0" cy="313.4" r="5.9" fill="#9a19ff"/>
    <circle cx="389.1" cy="283.2" r="6.4" fill="#8b32ff"/>
    <circle cx="391.3" cy="252.6" r="6.6" fill="#7c4bff"/>
    <circle cx="395.7" cy="227.0" r="5.0" fill="#6559ff"/>
    <circle cx="390.3" cy="197.4" r="6.0" fill="#4c66ff"/>
    <circle cx="359.8" cy="181.0" r="6.1" fill="#3473ff"/>
    <circle cx="343.3" cy="157.2" r="5.5" fill="#288df5"/>
    <circle cx="317.4" cy="151.4" r="4.1" fill="#26b3e3"/>
    <circle cx="285.2" cy="147.9" r="2.4" fill="#26b3e3"/>
    <circle cx="254.3" cy="158.1" r="4.3" fill="#288df5"/>
    <circle cx="232.5" cy="182.3" r="6.1" fill="#3473ff"/>
    <circle cx="217.5" cy="199.7" r="5.4" fill="#4c66ff"/>
    <circle cx="207.2" cy="228.3" r="3.9" fill="#6559ff"/>
    <circle cx="207.3" cy="256.1" r="6.7" fill="#7c4bff"/>
    <circle cx="211.9" cy="280.2" r="6.8" fill="#8b32ff"/>
    <circle cx="220.0" cy="311.8" r="6.6" fill="#9a19ff"/>
    <circle cx="240.5" cy="331.7" r="5.8" fill="#aa00ff"/>
    <circle cx="340.4" cy="310.2" r="4.6" fill="#aa00ff"/>
    <circle cx="364.4" cy="291.1" r="4.6" fill="#9620ff"/>
    <circle cx="370.8" cy="264.5" r="3.2" fill="#8241ff"/>
    <circle cx="365.6" cy="234.8" r="3.9" fill="#6658ff"/>
    <circle cx="356.9" cy="211.1" r="3.7" fill="#4769ff"/>
    <circle cx="346.6" cy="185.2" r="3.2" fill="#287bfd"/>
    <circle cx="316.1" cy="183.3" r="3.2" fill="#26ade5"/>
    <circle cx="287.6" cy="170.6" r="2.4" fill="#26ade5"/>
    <circle cx="257.1" cy="187.6" r="3.0" fill="#287bfd"/>
    <circle cx="240.1" cy="212.1" r="3.3" fill="#4769ff"/>
    <circle cx="228.5" cy="234.3" r="4.4" fill="#6658ff"/>
    <circle cx="231.1" cy="263.6" r="4.3" fill="#8241ff"/>
    <circle cx="237.9" cy="286.5" r="4.8" fill="#9620ff"/>
    <circle cx="260.9" cy="304.8" r="4.4" fill="#aa00ff"/>
    <circle cx="215.3" cy="252.7" r="1.8" fill="#7b4dff"/>
    <circle cx="154.4" cy="235.5" r="2.7" fill="#6d54ff"/>
    <circle cx="401.7" cy="278.6" r="1.7" fill="#8739ff"/>
    <circle cx="395.7" cy="267.2" r="3.5" fill="#8242ff"/>
    <circle cx="391.3" cy="185.5" r="3.9" fill="#406cff"/>
    <circle cx="458.0" cy="235.7" r="2.3" fill="#7351ff"/>
    <circle cx="322.1" cy="185.1" r="2.8" fill="#27a9e7"/>
    <circle cx="417.8" cy="286.4" r="2.3" fill="#863aff"/>
    <circle cx="394.0" cy="237.5" r="2.4" fill="#7550ff"/>
    <circle cx="220.7" cy="258.0" r="2.4" fill="#7f47ff"/>
    <circle cx="390.9" cy="162.1" r="3.4" fill="#3e6dff"/>
    <circle cx="379.3" cy="286.0" r="2.2" fill="#8d2fff"/>
    <circle cx="193.3" cy="258.5" r="1.7" fill="#7d4aff"/>
    <circle cx="411.2" cy="321.7" r="3.1" fill="#9620ff"/>
    <circle cx="246.4" cy="126.1" r="3.8" fill="#288bf5"/>
    <circle cx="226.4" cy="127.0" r="2.7" fill="#2a78ff"/>
    <circle cx="183.9" cy="359.4" r="1.6" fill="#a00fff"/>
    <circle cx="384.4" cy="227.3" r="2.2" fill="#6a56ff"/>
  </g>
  <text x="300" y="470" text-anchor="middle" fill="#ffffff" font-family="'Segoe UI',Arial,Helvetica,sans-serif" font-weight="300" font-size="118" letter-spacing="26">ATLAS</text>
</svg>
